<svg id="Contact_Me" data-name="Contact Me" xmlns="http://www.w3.org/2000/svg" width="44" height="44" viewBox="0 0 44 44">
  <rect id="Rectangle_17" data-name="Rectangle 17" width="44" height="44" fill="none"/>
  <g id="Group_12" data-name="Group 12" transform="translate(-290.955)">
    <path id="Path_14" data-name="Path 14" d="M38.633,28H21.367A1.352,1.352,0,0,0,20,29.367V41.633A1.352,1.352,0,0,0,21.367,43H38.633A1.352,1.352,0,0,0,40,41.633V29.367A1.352,1.352,0,0,0,38.633,28Zm.1,13.633a.143.143,0,0,1-.133.133H21.367a.143.143,0,0,1-.133-.133V29.367a.143.143,0,0,1,.133-.133H38.633a.143.143,0,0,1,.133.133V41.633Z" transform="translate(282.955 -13)" fill-rule="evenodd"/>
    <path id="Path_15" data-name="Path 15" d="M41.474,33.6l-7.663,5.546a.284.284,0,0,1-.233,0L25.915,33.6c-.233-.134-.466.167-.267.334l7.5,7.517a.824.824,0,0,0,1.133,0l7.5-7.517A.226.226,0,0,0,41.474,33.6Z" transform="translate(279.244 -16.699)" fill-rule="evenodd"/>
  </g>
</svg>
