<svg xmlns="http://www.w3.org/2000/svg" width="21" height="12" viewBox="0 0 21 12">
  <path id="Icon_ionic-ios-arrow-round-back" data-name="Icon ionic-ios-arrow-round-back" d="M21.274,23.022a.736.736,0,0,1-.007-1.15l4.428-3.806H8.823a.821.821,0,1,1,0-1.625H25.694L21.26,12.635a.741.741,0,0,1,.007-1.15,1.059,1.059,0,0,1,1.335.006l6.01,5.187h0a.915.915,0,0,1,.2.256.681.681,0,0,1,.073.312.758.758,0,0,1-.27.569L22.6,23A1.041,1.041,0,0,1,21.274,23.022Z" transform="translate(-7.882 -11.252)" fill="#fff"/>
</svg>
