<svg xmlns="http://www.w3.org/2000/svg" width="18" height="18" viewBox="0 0 18 18">
  <path id="Path_3309" data-name="Path 3309" d="M6634.4,6190h-6.811a5.6,5.6,0,0,0-5.595,5.609v6.8a5.6,5.6,0,0,0,5.595,5.588h6.811a5.6,5.6,0,0,0,5.595-5.588v-6.8A5.6,5.6,0,0,0,6634.4,6190Zm2.047,4.252a.689.689,0,0,0-1.378,0,.689.689,0,1,0,1.378,0Zm-5.453.3a4.454,4.454,0,1,0,0,8.908,4.378,4.378,0,0,0,3.142-1.315,4.42,4.42,0,0,0,0-6.3A4.357,4.357,0,0,0,6631,6194.556Zm0,7.37a2.929,2.929,0,0,1-2.067-.871,2.918,2.918,0,1,1,4.135,0A2.93,2.93,0,0,1,6631,6201.926Zm7.459.485a3.956,3.956,0,0,1-1.2,2.854,4.054,4.054,0,0,1-2.859,1.2h-6.811a4.137,4.137,0,0,1-2.878-1.2,4.016,4.016,0,0,1-1.176-2.854v-6.8a4.032,4.032,0,0,1,1.176-2.875,4.133,4.133,0,0,1,2.878-1.2h6.811a4.05,4.05,0,0,1,2.859,1.2,3.972,3.972,0,0,1,1.2,2.875Z" transform="translate(-6622 -6189.999)" fill="#262626" fill-rule="evenodd"/>
</svg>
