<svg id="Footer_linkedin" data-name="Footer linkedin" xmlns="http://www.w3.org/2000/svg" xmlns:xlink="http://www.w3.org/1999/xlink" width="44" height="44" viewBox="0 0 44 44">
  <defs>
    <clipPath id="clip-path">
      <rect id="Rectangle_3953" data-name="Rectangle 3953" width="18" height="18" fill="#262626" stroke="#707070" stroke-width="1"/>
    </clipPath>
  </defs>
  <g id="Mask_Group_19" data-name="Mask Group 19" transform="translate(13 11)" clip-path="url(#clip-path)">
    <g id="linkedin_hubspot" data-name="linkedin  hubspot" transform="translate(0 0.014)">
      <path id="Path_2305" data-name="Path 2305" d="M35.237,35.2h-3.73V29.362c0-1.39-.024-3.182-1.938-3.182-1.943,0-2.237,1.515-2.237,3.084V35.2H23.605v-12h3.575v1.64h.052A3.919,3.919,0,0,1,30.762,22.9c3.779,0,4.476,2.486,4.476,5.719V35.2ZM19.4,21.557a2.163,2.163,0,1,1,2.163-2.163A2.163,2.163,0,0,1,19.4,21.557Zm-1.87,1.64h3.734v12H17.531Z" transform="translate(-17.237 -17.23)" fill="#262626" fill-rule="evenodd"/>
    </g>
  </g>
</svg>
